<?xml version="1.0" encoding="iso-8859-1"?>
<!-- Generator: Adobe Illustrator 16.0.0, SVG Export Plug-In . SVG Version: 6.00 Build 0)  -->
<!DOCTYPE svg PUBLIC "-//W3C//DTD SVG 1.1//EN" "http://www.w3.org/Graphics/SVG/1.1/DTD/svg11.dtd">
<svg width="530" height="140" xmlns="http://www.w3.org/2000/svg" xmlns:svg="http://www.w3.org/2000/svg">
 <!-- Created with SVG-edit - http://svg-edit.googlecode.com/ -->
 <title>signature v2</title>
 <g>
  <title>Layer 1</title>
  <g id="svg_259">
   <path fill="none" stroke="#ffffff" stroke-width="15" stroke-dasharray="null" stroke-linejoin="null" stroke-linecap="round" id="svg_256" d="m135,9c-1.146667,1.490662 -1.788498,1.875595 -2.58667,2.35466c-0.46106,0.276733 -0.975983,0.564056 -2.700836,1.732666c-0.672195,0.455429 -1.384323,0.97374 -2.152496,1.542007c-0.833725,0.61676 -1.728943,1.298386 -2.692505,2.046005c-1.043304,0.809494 -3.369751,2.655182 -4.661819,3.69783c-1.382767,1.115845 -2.84613,2.311478 -4.383011,3.589493c-1.617996,1.345459 -3.303391,2.769165 -5.048996,4.273499c-1.817276,1.566116 -5.611588,4.92543 -7.582336,6.714844c-2.032089,1.845108 -4.108795,3.762512 -6.246002,5.732986c-2.195465,2.0242 -4.44664,4.103088 -6.76799,6.219025c-2.377213,2.16684 -7.338272,6.603546 -9.927338,8.861816c-2.637497,2.300507 -5.336716,4.615601 -8.070007,6.964508c-2.763374,2.374756 -5.552345,4.768127 -8.339996,7.198486c-2.799049,2.440308 -8.351257,7.393311 -11.073662,9.913849c-2.706924,2.506226 -5.355499,5.026184 -7.941002,7.544983c-2.543709,2.478088 -5.006905,4.937286 -7.382996,7.365021c-2.309013,2.359222 -6.618996,6.905792 -8.603836,9.074646c-1.89341,2.068939 -3.667,4.061554 -5.314499,5.979004c-1.555595,1.810486 -2.988319,3.538483 -4.288506,5.187012c-1.20961,1.533691 -3.252953,4.329437 -4.076996,5.591492c-0.74646,1.14325 -1.374214,2.204742 -1.894501,3.181488c-0.465218,0.873352 -0.838867,1.671387 -1.138496,2.389526c-0.2631,0.630585 -0.633965,1.675873 -0.759338,2.093994c-0.103882,0.346436 -0.186996,0.635834 -0.151497,0.856506c0.027756,0.172546 0.171394,0.301422 0.370499,0.334473c0.268654,0.044586 1.083534,-0.097565 1.631332,-0.227142c0.651428,-0.154114 1.399033,-0.366852 2.239502,-0.641998c0.943756,-0.30896 1.97963,-0.688965 3.1035,-1.146027c1.227402,-0.499176 3.946953,-1.745087 5.435829,-2.497986c1.594368,-0.806244 3.273865,-1.710632 5.046005,-2.700012c1.880898,-1.050079 3.854599,-2.193298 5.927994,-3.419983c2.185501,-1.292999 6.866791,-4.135498 9.366669,-5.67868c2.601578,-1.605957 5.282425,-3.280426 8.028,-5.015991c2.805832,-1.773651 5.64901,-3.591614 8.514,-5.447998c2.884384,-1.868927 8.626846,-5.656799 11.457329,-7.564331c2.81218,-1.895203 5.594147,-3.800812 8.346008,-5.721008c2.740814,-1.912476 5.456741,-3.842255 8.147995,-5.792999c2.687424,-1.947968 8.011002,-5.909821 10.647842,-7.928314c2.633865,-2.016205 5.238098,-4.052124 7.801498,-6.108002c2.542236,-2.03891 5.033081,-4.086334 7.459488,-6.144012c2.388153,-2.025208 6.941711,-6.05777 9.087677,-8.060822c2.087082,-1.94809 4.071884,-3.876221 5.947495,-5.77652c1.802277,-1.825989 3.488358,-3.609039 5.047501,-5.344482c1.47348,-1.640106 4.030441,-4.709808 5.098831,-6.12851c0.980988,-1.302643 1.829788,-2.530228 2.559006,-3.675003c0.660141,-1.036331 1.213425,-1.994186 1.677002,-2.865005c0.409897,-0.769974 1.015015,-2.053223 1.236832,-2.561157c0.184174,-0.421722 0.325317,-0.768982 0.427505,-1.048508c0.078644,-0.215149 0.129501,-0.376602 0.157486,-0.490494c0.017639,-0.071762 0.022903,-0.121475 0.021835,-0.111008c-0.003418,0.033661 -0.014969,0.093704 -0.041992,0.181503c-0.037415,0.121552 -0.097916,0.277527 -0.186005,0.469498c-0.108505,0.236465 -0.435806,0.839798 -0.657333,1.213501c-0.252823,0.426498 -0.544708,0.898788 -0.858002,1.425003c-0.341553,0.573669 -0.704346,1.196869 -1.07399,1.875c-0.393417,0.721725 -1.189514,2.321594 -1.582504,3.199661c-0.411392,0.919174 -0.815216,1.890427 -1.231506,2.904007c-0.432785,1.053726 -0.873383,2.150391 -1.339493,3.282013c-0.481812,1.169739 -1.522064,3.608887 -2.093002,4.870148c-0.58493,1.292175 -1.201706,2.600891 -1.843506,3.922516c-0.649155,1.336761 -1.319412,2.675659 -2.005493,4.012482c-0.685928,1.336517 -2.082474,3.969696 -2.786499,5.25769c-0.696014,1.273346 -1.396545,2.526306 -2.100006,3.760498c-0.696564,1.222107 -1.397125,2.427002 -2.099991,3.616486c-0.697174,1.17984 -2.098938,3.500183 -2.799179,4.644012c-0.693085,1.132141 -1.380798,2.245483 -2.047501,3.343475c-0.651566,1.073059 -1.279938,2.120209 -1.867493,3.145508c-0.565552,0.986877 -1.564026,2.861023 -1.977997,3.746185c-0.389404,0.832642 -0.721954,1.627869 -1.0065,2.378998c-0.263855,0.696533 -0.48204,1.347473 -0.664505,1.946991c-0.164978,0.542023 -0.407227,1.460114 -0.4935,1.831818c-0.073151,0.315155 -0.128815,0.580688 -0.149994,0.802521c-0.017212,0.180267 -0.014206,0.331299 0.029999,0.442505c0.0383,0.096344 0.206329,0.228363 0.321335,0.261169c0.13623,0.038879 0.317093,0.03833 0.533997,-0.009003c0.275391,-0.060089 0.607605,-0.192291 1.001999,-0.387024c0.481705,-0.237823 1.68988,-0.975159 2.434998,-1.474487c0.847458,-0.567902 1.77417,-1.220764 2.787003,-1.930511c1.089188,-0.763245 2.245071,-1.576233 3.470993,-2.416504c1.277969,-0.875946 3.988068,-2.667328 5.411667,-3.559143c1.445694,-0.90567 2.922546,-1.796051 4.416,-2.679016c1.495895,-0.884399 2.996292,-1.75116 4.488007,-2.606995c1.473633,-0.845459 4.344009,-2.480957 5.723663,-3.270325c1.337677,-0.76532 2.629364,-1.506195 3.878998,-2.208008c1.1978,-0.672699 2.345139,-1.30661 3.447006,-1.884003c1.039764,-0.54483 2.955063,-1.466248 3.831161,-1.822662c0.805923,-0.327881 1.560318,-0.59079 2.260498,-0.791992c0.636765,-0.182983 1.223297,-0.313568 1.7565,-0.395996c0.476593,-0.073669 1.280289,-0.122345 1.604675,-0.097504c0.277374,0.02124 0.518097,0.069092 0.685501,0.181488c0.150345,0.100952 0.246918,0.272095 0.2715,0.469513c0.028976,0.232727 -0.107269,0.841217 -0.235168,1.213989c-0.148193,0.431854 -0.34903,0.913971 -0.578995,1.456512c-0.257111,0.606598 -0.551086,1.275269 -0.867004,2.014496c-0.345581,0.808655 -1.105347,2.651794 -1.510162,3.690979c-0.428787,1.100708 -0.861542,2.253815 -1.297501,3.442505c-0.442429,1.206329 -0.876144,2.419037 -1.297501,3.622498c-0.411926,1.176575 -1.166183,3.396332 -1.497513,4.412842c-0.308411,0.946228 -0.585693,1.826996 -0.824997,2.645996c-0.220261,0.753815 -0.408539,1.448669 -0.554993,2.088013c-0.132767,0.57959 -0.300827,1.582977 -0.319672,2.009674c-0.016754,0.379272 0.005463,0.72348 0.096008,1.016998c0.084244,0.273071 0.234482,0.516968 0.437988,0.710999c0.215591,0.205566 0.828857,0.527222 1.209335,0.656982c0.422226,0.144012 0.906265,0.25296 1.445999,0.312012c0.593414,0.064911 1.252289,0.069946 1.968002,0.005981c0.783859,-0.070038 2.550095,-0.441711 3.528,-0.746307c1.055023,-0.328613 2.159958,-0.74826 3.311996,-1.233002c1.210449,-0.509308 2.453445,-1.087555 3.725998,-1.719025c1.311722,-0.650909 3.982468,-2.089142 5.33168,-2.860657c1.360199,-0.777802 2.707855,-1.581146 4.041,-2.390991c1.316177,-0.799561 2.597931,-1.596375 3.842987,-2.373016c1.200272,-0.748718 3.427444,-2.14151 4.444168,-2.76416c0.944717,-0.578552 1.822708,-1.107086 2.635498,-1.58548c0.743698,-0.437714 1.423523,-0.828583 2.041504,-1.171509c0.551559,-0.306061 1.472153,-0.789429 1.845337,-0.964996c0.313904,-0.147675 0.579086,-0.260712 0.802505,-0.331512c0.178986,-0.056732 0.326889,-0.087524 0.44249,-0.079498c0.091934,0.006378 0.223328,0.087219 0.262344,0.146515c0.040268,0.061188 0.062393,0.139557 0.064499,0.224976c0.002335,0.095123 -0.019791,0.201904 -0.061508,0.315002c-0.047012,0.127441 -0.211014,0.407532 -0.323502,0.559021c-0.11937,0.160767 -0.25148,0.316284 -0.386993,0.461975c-0.126678,0.1362 -0.243652,0.253387 -0.350998,0.335999c-0.078049,0.060059 -0.160217,0.045685 -0.133011,-0.026489c0.047791,-0.126801 0.156021,-0.289734 0.300003,-0.4935c0.175217,-0.247955 0.395859,-0.527496 0.660004,-0.83551c0.29541,-0.344482 1.01593,-1.100708 1.438492,-1.50531c0.445251,-0.426331 0.918137,-0.852936 1.405502,-1.27652c0.485672,-0.422119 0.96933,-0.825989 1.441498,-1.204498c0.444,-0.355957 1.230591,-0.949219 1.560181,-1.169159c0.276489,-0.184509 0.513245,-0.325958 0.71698,-0.416992c0.16272,-0.072693 0.300964,-0.113861 0.411011,-0.110992c0.088501,0.002289 0.220459,0.081787 0.257507,0.142822c0.040222,0.066254 0.055237,0.162201 0.043488,0.277496c-0.015015,0.147278 -0.070587,0.328644 -0.15448,0.547485c-0.102936,0.268463 -0.430756,0.953949 -0.652832,1.381683c-0.252228,0.485779 -0.54187,1.018799 -0.858002,1.597504c-0.33847,0.619659 -0.69931,1.27298 -1.074005,1.957489c-0.388,0.708801 -1.184235,2.181335 -1.581833,2.937347c-0.401077,0.762634 -0.798462,1.534241 -1.189514,2.314484c-0.392654,0.783447 -0.778091,1.573059 -1.153488,2.3685c-0.37529,0.795227 -1.093918,2.394043 -1.435333,3.194336c-0.337204,0.790405 -0.656815,1.569214 -0.964508,2.326508c-0.295929,0.728363 -0.573364,1.423187 -0.838501,2.074493c-0.245621,0.603333 -0.681854,1.635193 -0.874664,2.04834c-0.161133,0.345276 -0.300323,0.614685 -0.397491,0.814484c-0.060425,0.124237 -0.070267,0.178436 -0.037506,0.148529c0.101532,-0.092682 0.45723,-0.544739 0.743164,-0.885681c0.359329,-0.428436 0.79837,-0.949493 1.317001,-1.573486c0.606873,-0.730164 1.303253,-1.575806 2.091003,-2.545502c0.889847,-1.095398 2.974213,-3.705536 4.176315,-5.228516c1.304688,-1.652954 2.694214,-3.42395 4.170013,-5.286011c1.540771,-1.944031 3.140564,-3.948975 4.799988,-5.987976c1.687164,-2.07309 5.150391,-6.212341 6.915192,-8.239685c1.756622,-2.017975 3.537018,-4.003967 5.33548,-5.96698c1.797913,-1.962372 3.620392,-3.906036 5.461517,-5.841003c1.848206,-1.942413 5.612213,-5.825226 7.522156,-7.775848c1.911377,-1.952087 3.817902,-3.885071 5.703003,-5.788483c1.846252,-1.864212 3.644623,-3.671371 5.378998,-5.410507c1.654999,-1.659515 4.676727,-4.681778 6.01767,-6.022003c1.224426,-1.223755 2.33606,-2.334305 3.34201,-3.331497c0.899506,-0.891678 1.698486,-1.67894 2.405975,-2.359497c0.61026,-0.587036 1.571411,-1.476456 1.939362,-1.774841c0.284332,-0.230591 0.505493,-0.396286 0.68399,-0.459c0.117157,-0.041168 0.216522,-0.011078 0.251984,0.063004c0.044403,0.092758 0.03772,0.369019 0.035339,0.525833c-0.002716,0.177872 -0.01297,0.388123 -0.041992,0.640503c-0.03537,0.30748 -0.09671,0.679565 -0.186005,1.126495c-0.107117,0.53598 -0.433899,1.910553 -0.657654,2.767838c-0.253052,0.969543 -0.547272,2.037827 -0.878998,3.194992c-0.355347,1.239594 -0.744629,2.548126 -1.167023,3.915009c-0.438751,1.419861 -1.396759,4.366425 -1.910492,5.875336c-0.522186,1.533798 -1.067749,3.088394 -1.6185,4.671005c-0.560303,1.610046 -1.129517,3.248779 -1.690491,4.922974c-0.571136,1.704498 -1.691132,5.226135 -2.226166,7.047516c-0.54245,1.846649 -1.060242,3.718658 -1.554016,5.605499c-0.493591,1.886169 -0.958252,3.769928 -1.391998,5.64151c-0.42746,1.844482 -1.185333,5.432678 -1.511169,7.158997c-0.315186,1.6698 -0.592438,3.285706 -0.83548,4.843506c-0.232971,1.493286 -0.432526,2.923065 -0.601501,4.285492c-0.159943,1.289673 -0.403931,3.645721 -0.483856,4.707001c-0.074036,0.98288 -0.122009,1.893097 -0.108002,2.731506c0.012878,0.770966 0.070892,1.482178 0.216003,2.119476c0.134705,0.591583 0.615601,1.615906 0.979004,2.012848c0.366608,0.400452 0.849304,0.722931 1.412994,0.932983c0.615997,0.229553 1.351044,0.335602 2.169006,0.33902c0.919769,0.003845 3.093353,-0.337067 4.345337,-0.657349c1.375916,-0.351959 2.843536,-0.823242 4.394989,-1.382996c1.645874,-0.593811 3.353851,-1.282013 5.115021,-2.048981c1.825928,-0.795135 5.572021,-2.593384 7.473328,-3.580353c1.925537,-0.999573 3.841217,-2.048553 5.744995,-3.119995c1.892883,-1.065308 3.748749,-2.143127 5.565002,-3.209991c1.770355,-1.039886 5.115417,-3.029266 6.674347,-3.955353c1.475708,-0.876648 2.866547,-1.702271 4.15799,-2.496002c1.203003,-0.73938 2.298676,-1.450653 3.294006,-2.117981l0.887329,-0.631348"/>
   <path fill="none" stroke="#ffffff" stroke-width="15" stroke-dasharray="null" stroke-linejoin="null" stroke-linecap="round" id="svg_257" d="m160,31c2.865005,1.321167 3.678848,1.666199 4.625,1.979172c0.511856,0.169311 1.629089,0.484985 2.875,0.6875c0.664001,0.107925 1.372681,0.171066 2.130005,0.209991c0.816131,0.041947 1.703445,0.048722 2.669998,0.029999c1.0569,-0.020477 2.214356,-0.063782 4.866669,-0.23999c1.516128,-0.100724 3.164322,-0.236176 4.948501,-0.39c1.923859,-0.165863 3.989258,-0.357254 6.199494,-0.570007c2.358795,-0.227066 4.868438,-0.475662 10.352005,-1.039993c2.979751,-0.306656 6.115371,-0.638245 9.406509,-0.962998c3.440857,-0.339523 7.029846,-0.67546 10.765473,-0.981002c3.875396,-0.316971 7.888702,-0.647217 16.328002,-1.056c4.412873,-0.213745 8.954346,-0.340378 13.617005,-0.438004c4.780029,-0.100082 9.674621,-0.153595 14.679016,-0.186004c5.11026,-0.033097 10.322662,-0.039994 21.037323,-0.042664c5.48999,-0.001373 11.040009,0 16.619995,0c5.580017,0 11.130005,0 16.619995,0l20.76001,0c4.743988,0 9.272003,0 13.578003,0c4.078003,0 7.921997,0 11.526001,0l3.358002,0l3.105987,0"/>
   <path fill="none" stroke="#ffffff" stroke-width="15" stroke-dasharray="null" stroke-linejoin="null" stroke-linecap="round" id="svg_258" d="m402,14c-0.379669,3.578827 -0.614624,4.151291 -0.990326,4.852829c-0.231323,0.431961 -1.217438,2.121002 -1.643005,2.841843c-0.474365,0.803528 -1.000122,1.689255 -1.575012,2.6595c-0.625153,1.055069 -1.301056,2.195694 -2.024994,3.4245c-1.602386,2.719925 -2.476379,4.214478 -3.394653,5.79599c-0.964478,1.661087 -1.966278,3.40062 -2.997009,5.21701c-1.068085,1.882217 -2.162781,3.830185 -3.266998,5.847c-2.291565,4.185455 -3.436798,6.363586 -4.584015,8.581329c-1.158203,2.238953 -2.297485,4.500732 -3.398987,6.779999c-1.095825,2.267517 -2.156433,4.52478 -3.128998,6.779999c-1.88208,4.364288 -2.665649,6.502777 -3.389343,8.575989c-0.695557,1.992615 -1.301453,3.91925 -1.815002,5.769012c-0.485352,1.748138 -0.897308,3.401978 -1.184998,4.959015c-0.50589,2.737976 -0.591461,3.935059 -0.600006,5.002655c-0.00766,0.95697 0.075195,1.824371 0.285004,2.579987c0.194183,0.69931 0.490021,1.340515 0.915009,1.860016c0.865631,1.058136 1.528534,1.436279 2.201324,1.807983c0.711914,0.393341 1.52005,0.714325 2.40451,0.957001c0.941498,0.258331 1.972473,0.442932 3.079498,0.507019c2.4375,0.141144 3.783783,-0.025208 5.198669,-0.198669c1.497009,-0.183533 3.064178,-0.458801 4.700989,-0.787506c1.712799,-0.343964 3.489502,-0.749298 5.331024,-1.192505c3.881958,-0.934296 5.903961,-1.462738 7.971985,-1.982666c2.089661,-0.525391 4.181335,-1.050812 6.259491,-1.553986c2.040527,-0.49408 4.025482,-0.968719 5.944519,-1.374023c3.527313,-0.744995 5.118042,-0.996307 6.579987,-1.197327c1.335754,-0.183655 2.556458,-0.307556 3.662994,-0.386993c0.994965,-0.071411 1.885193,-0.105042 2.673004,-0.117004c1.285217,-0.019501 1.791779,-0.016235 2.214661,0.001343c0.347565,0.014435 0.636597,0.037445 0.841522,0.136505c0.173767,0.083984 0.300964,0.246552 0.346497,0.451477c0.123962,0.557861 0.047607,0.954224 0.006653,1.402679c-0.04657,0.510132 -0.128845,1.075165 -0.248993,1.6875c-0.129761,0.661346 -0.294159,1.3638 -0.519012,2.092499c-0.483215,1.566071 -0.834076,2.365295 -1.189331,3.185333c-0.361328,0.834045 -0.748932,1.662964 -1.125,2.493011c-0.370575,0.817963 -0.738464,1.613434 -1.035004,2.402985c-0.547363,1.457367 -0.705627,2.147888 -0.785309,2.793335c-0.074127,0.600433 -0.066254,1.175964 0.0495,1.699493c0.111389,0.503845 0.31311,0.987732 0.634491,1.384521c0.677643,0.83667 1.233765,1.123596 1.812012,1.401337c0.636475,0.305725 1.388794,0.544495 2.240997,0.734985c0.950592,0.212494 2.028076,0.368164 3.230988,0.464996c2.806152,0.225861 4.434204,0.209137 6.198669,0.200012c1.896637,-0.009796 3.916504,-0.067749 6.0495,-0.165009c2.239105,-0.102112 4.574341,-0.242493 6.994507,-0.434998c5.071045,-0.403351 7.697083,-0.697357 10.374634,-0.992004c2.719116,-0.299225 5.466614,-0.624573 8.235046,-0.947998c2.778259,-0.324585 5.555237,-0.65509 8.324951,-0.947998c5.463989,-0.57785 8.143066,-0.797638 10.764038,-0.994659c2.54541,-0.191345 5.000977,-0.345398 7.348511,-0.473999c2.221802,-0.121704 4.302124,-0.21759 6.22345,-0.294006c3.297058,-0.131134 4.645264,-0.171539 5.801392,-0.201324c0.981934,-0.025299 1.808105,-0.040314 2.495972,-0.025513c0.568237,0.012207 1.03833,0.031403 1.416016,0.109497c0.593323,0.122681 0.828613,0.256897 1.022644,0.399994c0.181885,0.134155 0.310669,0.310669 0.415527,0.490509l0.069824,0.194824l0.033813,0.208832l-0.003174,0.221832"/>
  </g>
 </g>
</svg>